<?xml version="1.0" encoding="utf-8"?>
<!-- Generator: Adobe Illustrator 18.0.0, SVG Export Plug-In . SVG Version: 6.00 Build 0)  -->
<!DOCTYPE svg PUBLIC "-//W3C//DTD SVG 1.1//EN" "http://www.w3.org/Graphics/SVG/1.1/DTD/svg11.dtd">
<svg version="1.1" id="Layer_1" xmlns="http://www.w3.org/2000/svg" xmlns:xlink="http://www.w3.org/1999/xlink" x="0px" y="0px"
	 viewBox="150 150 100 100" enable-background="new 0 0 400 400" xml:space="preserve">
<path fill="#F5543B" d="M227.2,185.4c-1,1.7-2,3.4-3,5.1c-4.4,7.6-8.8,15.2-13.2,22.8c-0.2,0.3-0.2,0.5,0.1,0.8c2.9,3.2,1.1,8-2.8,8.8
	c-3.7,0.7-6.4-2.4-6.3-5.1c0-1.2,0.4-2.3,1.1-3.3c-0.7-1-1.5-2-2.3-3c-3.8-5-7.6-9.9-11.4-14.9c-0.2-0.3-0.3-0.3-0.7-0.2
	c-1.4,0.5-2.8,0.4-4.1-0.2c-0.1,0-0.2-0.1-0.4-0.2c-4,4.5-8,9-12,13.4c-2.8-2.7-5.6-5.4-8.4-8.1c0.6-0.6,1.2-1.2,1.7-1.8
	c2.1,2.1,4.3,4.2,6.5,6.4c0.8-0.9,1.7-1.9,2.5-2.8c2.5-2.8,5-5.5,7.5-8.3c0.3-0.3,0.4-0.6,0.1-1c-1.7-3.2,0.4-6.9,3.6-7.6
	c3.2-0.6,5.8,1.4,6.3,4.4c0.2,1.3-0.1,2.5-0.8,3.6c-0.1,0.1-0.2,0.3-0.3,0.4c4.6,6,9.2,12.1,13.9,18.1c1.1-0.5,2.2-0.6,3.4-0.4
	c0.1,0,0.4-0.2,0.5-0.3c1.8-3.1,3.6-6.3,5.5-9.4c3.5-6.1,7-12.2,10.5-18.3c0.1-0.1,0.1-0.3,0.2-0.4c-2.7-2.9-1.7-5.9,0-7.7
	c1.7-1.7,4.5-2.1,6.6-0.6c2,1.4,2.9,3.8,2,6.1C232.7,184.5,230.5,186.1,227.2,185.4z M231.5,180.3c0-1.6-1.3-2.8-2.8-2.8
	c-1.5,0-2.8,1.3-2.8,2.8c0,1.6,1.3,2.8,2.8,2.8C230.3,183.1,231.5,181.9,231.5,180.3z M207.2,214.9c-1.6,0-2.8,1.3-2.8,2.9
	c0,1.5,1.3,2.7,2.8,2.7c1.5,0,2.9-1.3,2.8-2.8C210.1,216.2,208.8,214.9,207.2,214.9z M189.8,191.5c0-1.5-1.3-2.8-2.8-2.8
	c-1.5,0-2.8,1.3-2.8,2.7c0,1.6,1.3,2.9,2.9,2.9C188.5,194.4,189.8,193.1,189.8,191.5z"/>
</svg>
