<svg xmlns="http://www.w3.org/2000/svg" version="1.1" x="0" y="0" viewBox="150 150 100 100" enable-background="new 0 0 400 400" xml:space="preserve"><path fill="#f57f1f" d="M221.4 189.4c-0.7-4.2-3.1-7.2-7-9 -1.1-0.5-2.3-0.8-3.5-0.9 0-0.1 0-0.1 0-0.2 -0.3-2.6-1.3-4.9-3.1-6.8 -3.7-4.1-10.1-5-14.7-2 -3.2 2-5.1 4.9-5.5 8.6 0 0.3-0.2 0.4-0.5 0.4 -2.9 0.4-5.4 1.6-7.3 3.8 -2.6 3-3.5 6.5-2.7 10.4 1.6 7.4 9.8 11.3 16.6 8 0.1-0.1 0.3-0.1 0.4 0 3.4 1.6 6.8 1.6 10.2 0 0.1 0 0.3 0 0.4 0 2.9 1.4 5.9 1.6 9 0.5C219 200.6 222.4 195 221.4 189.4zM212 200.6c-2.4 0.6-4.7 0.2-6.9-1 -0.4-0.2-0.8-0.2-1.3 0 -3.1 1.7-6.2 1.7-9.4 0 -0.4-0.2-0.9-0.2-1.3 0 -1.8 1-3.7 1.4-5.7 1.2 -4.3-0.5-7.7-3.8-8.4-8.1 -0.4-3.1 0.4-5.8 2.6-8 1.7-1.8 3.8-2.8 6.2-2.9 0.2 0 0.5 0 0.7-0.1 0.6-0.1 1-0.5 1-1.1 0-1.3 0.3-2.6 0.8-3.7 1.3-2.9 3.5-4.8 6.6-5.5 5.3-1.2 10.4 2.2 11.4 7.4 0.1 0.6 0.2 1.3 0.2 1.9 0 0.7 0.4 1.1 1.1 1.1 1.1 0.1 2.2 0.2 3.2 0.6 3.5 1.4 5.6 3.9 6.2 7.7 0.1 0.4 0.1 0.9 0.1 1.3C219.4 195.8 216.4 199.6 212 200.6zM204.5 216c-3.2-1.9-6.3-3.7-9.5-5.6 -0.1-0.1-0.2-0.1-0.4-0.2 0.1-0.1 0.2-0.2 0.3-0.3 0.8-0.8 1.6-1.6 2.4-2.5 0.3-0.3 0.5-0.6 0.4-1 -0.1-0.4-0.3-0.8-0.8-0.9 -0.4-0.1-0.8 0-1.2 0.3 -1.2 1.2-2.4 2.4-3.6 3.6 -0.8 0.8-0.7 1.5 0.3 2.1 1.5 0.9 2.9 1.7 4.4 2.6 1.9 1.1 3.7 2.2 5.6 3.3 -0.1 0.1-0.1 0.2-0.2 0.3 -2 2.5-4.1 5-6.1 7.4 -1.4 1.7-2.7 3.3-4.1 5 -0.2 0.2-0.3 0.5-0.4 0.7 -0.1 0.4 0.3 1 0.7 1.1 0.5 0.2 1 0.1 1.4-0.4 3.7-4.5 7.4-9 11.1-13.6C205.6 217.2 205.4 216.6 204.5 216z"/></svg>