<?xml version="1.0" encoding="utf-8"?>
<!-- Generator: Adobe Illustrator 18.0.0, SVG Export Plug-In . SVG Version: 6.00 Build 0)  -->
<!DOCTYPE svg PUBLIC "-//W3C//DTD SVG 1.1//EN" "http://www.w3.org/Graphics/SVG/1.1/DTD/svg11.dtd">
<svg version="1.1" id="Layer_1" xmlns="http://www.w3.org/2000/svg" xmlns:xlink="http://www.w3.org/1999/xlink" x="0px" y="0px"
	 viewBox="150 150 100 100" enable-background="new 0 0 400 400" xml:space="preserve">
<g>
	<g>
		<path fill="#f57f1f" d="M221.4,189.4c-0.7-4.2-3.1-7.2-7-9c-1.1-0.5-2.3-0.8-3.5-0.9c0-0.1,0-0.1,0-0.2c-0.3-2.6-1.3-4.9-3.1-6.8
			c-3.7-4.1-10.1-5-14.7-2c-3.2,2-5.1,4.9-5.5,8.6c0,0.3-0.2,0.4-0.5,0.4c-2.9,0.4-5.4,1.6-7.3,3.8c-2.6,3-3.5,6.5-2.7,10.4
			c1.6,7.4,9.8,11.3,16.6,8c0.1-0.1,0.3-0.1,0.4,0c3.4,1.6,6.8,1.6,10.2,0c0.1,0,0.3,0,0.4,0c2.9,1.4,5.9,1.6,9,0.5
			C219,200.6,222.4,195,221.4,189.4z M212,200.6c-2.4,0.6-4.7,0.2-6.9-1c-0.4-0.2-0.8-0.2-1.3,0c-3.1,1.7-6.2,1.7-9.4,0
			c-0.4-0.2-0.9-0.2-1.3,0c-1.8,1-3.7,1.4-5.7,1.2c-4.3-0.5-7.7-3.8-8.4-8.1c-0.4-3.1,0.4-5.8,2.6-8c1.7-1.8,3.8-2.8,6.2-2.9
			c0.2,0,0.5,0,0.7-0.1c0.6-0.1,1-0.5,1-1.1c0-1.3,0.3-2.6,0.8-3.7c1.3-2.9,3.5-4.8,6.6-5.5c5.3-1.2,10.4,2.2,11.4,7.4
			c0.1,0.6,0.2,1.3,0.2,1.9c0,0.7,0.4,1.1,1.1,1.1c1.1,0.1,2.2,0.2,3.2,0.6c3.5,1.4,5.6,3.9,6.2,7.7c0.1,0.4,0.1,0.9,0.1,1.3
			C219.4,195.8,216.4,199.6,212,200.6z M204.5,216c-3.2-1.9-6.3-3.7-9.5-5.6c-0.1-0.1-0.2-0.1-0.4-0.2c0.1-0.1,0.2-0.2,0.3-0.3
			c0.8-0.8,1.6-1.6,2.4-2.5c0.3-0.3,0.5-0.6,0.4-1c-0.1-0.4-0.3-0.8-0.8-0.9c-0.4-0.1-0.8,0-1.2,0.3c-1.2,1.2-2.4,2.4-3.6,3.6
			c-0.8,0.8-0.7,1.5,0.3,2.1c1.5,0.9,2.9,1.7,4.4,2.6c1.9,1.1,3.7,2.2,5.6,3.3c-0.1,0.1-0.1,0.2-0.2,0.3c-2,2.5-4.1,5-6.1,7.4
			c-1.4,1.7-2.7,3.3-4.1,5c-0.2,0.2-0.3,0.5-0.4,0.7c-0.1,0.4,0.3,1,0.7,1.1c0.5,0.2,1,0.1,1.4-0.4c3.7-4.5,7.4-9,11.1-13.6
			C205.6,217.2,205.4,216.6,204.5,216z"/>
	</g>
</g>
</svg>
