<?xml version="1.0" encoding="utf-8"?>
<!-- Generator: Adobe Illustrator 18.0.0, SVG Export Plug-In . SVG Version: 6.00 Build 0)  -->
<!DOCTYPE svg PUBLIC "-//W3C//DTD SVG 1.1//EN" "http://www.w3.org/Graphics/SVG/1.1/DTD/svg11.dtd">
<svg version="1.1" id="Layer_1" xmlns="http://www.w3.org/2000/svg" xmlns:xlink="http://www.w3.org/1999/xlink" x="0px" y="0px"
	 viewBox="150 150 100 100" enable-background="new 0 0 400 400" xml:space="preserve">
<path fill="#F5543B" d="M191.3,179.5c-6,10.3-12,20.5-18.1,30.7c0.3,0,0.5,0,0.6,0c7.5,0,15,0,22.6,0c0.5,0,0.7,0.1,0.8,0.6
	c0.6,1.9,1.5,3.7,2.8,5.2c2.1,2.6,4.8,4.3,8.1,4.9c5.2,1,9.7-0.4,13.3-4.2c2.9-3,4.1-6.7,3.8-10.9c-0.5-6.2-4.9-11.4-11-12.8
	c-2.9-0.7-5.7-0.4-9,0.8c-0.4-0.6-0.8-1.2-1.4-1.9c1.1-0.4,2.1-0.7,3.1-1c9.2-2.3,18.1,3.5,20.1,12.3c1.9,8.3-2.7,16.3-10.4,19.1
	c-5,1.8-9.8,1.3-14.3-1.5c-3.1-1.9-5.3-4.6-6.7-8c-0.1-0.4-0.3-0.5-0.7-0.5c-8,0-16,0-24.1,0c-0.2,0-0.3,0-0.4,0
	c-0.7-0.1-0.9-0.4-0.5-1c1.1-2,2.3-3.9,3.4-5.9c5.7-9.7,11.4-19.5,17.1-29.2c0-0.1,0.1-0.1,0.1-0.2c0.4-0.7,0.9-0.7,1.3,0
	c2.3,3.9,4.6,7.8,6.9,11.8c4.6,7.8,9.1,15.5,13.7,23.3c0.1,0.1,0.2,0.3,0.2,0.4c0.1,0.4,0,0.6-0.4,0.7c-0.2,0-0.3,0.1-0.5,0.1
	c-3.3,0-6.6,0-9.9,0c-0.1,0-0.2,0-0.4,0c0-0.7,0-1.4,0-2.2c2.6,0,5.1,0,7.8,0C203.4,199.9,197.4,189.7,191.3,179.5z"/>
</svg>
