<svg xmlns="http://www.w3.org/2000/svg" version="1.1" x="0" y="0" viewBox="0 0 270.2 36.3" enable-background="new 0 0 270.2 36.3" xml:space="preserve"><path fill="black" d="M186.1 17.5L186.1 17.5c3.3-0.9 5.8-3.3 5.8-6.8 0-2.9-1.3-5.2-3.9-6.8 -2.2-1.4-4.8-1.4-7.3-1.4h-14.3v29.3c-0.3-0.1-0.5-0.3-0.8-0.4 -1.2-0.7-3-1.8-5.8-4 1.8-2.2 4.1-6.3 4.1-9.6 0-0.4-0.1-0.7-0.8-0.8 -2.3-0.2-4-0.3-5-0.3 -0.3 0-0.7 0.1-0.7 0.3 0 0.2 0.3 0.3 0.5 0.3 0.6 0 1.5 0.1 2.1 0.7 0.6 0.6 0.8 1.4 0.8 2 0 2.5-1 5.2-2.1 6.8 -1.3-1.1-6.5-5.8-7.9-7.3 -4.4-4.6-6.6-7.3-6.6-10.4 0-3.8 2.8-5.3 5.3-5.3 1.8 0 3.3 0.9 4.2 1.8 1 1.1 1.3 2.4 1.3 3.5 0 0.6 0 0.8 0.3 0.8 0.2 0 0.3-0.1 0.4-0.7 0.1-0.6 0.3-3.5 0.3-4.7 0-0.5 0-0.7-0.5-1 -1.1-0.6-2.9-1-5.1-1 -5.6 0-9 4.3-9 7.5 0 1.8 0.5 3.5 2.1 5.6 -3.3 1.9-6.4 5.1-6.4 9.8 0 3.6 2.8 9 10.2 9 6.2 0 9.5-3.5 10.5-4.4 4.6 3.6 5.6 3.8 8.7 3.8h14.3c2.7 0 5.8 0 8.2-1.7 2.2-1.6 3.9-4 3.9-6.7C192.8 21.2 190.1 18.3 186.1 17.5zM148.7 32c-4.7 0-8.4-3.7-8.4-8.8 0-3.3 1.6-5.5 3.8-6.9 1.2 1.7 3.9 4.6 4.9 5.7 1.1 1.1 5.2 5 7.6 6.9C155.2 30.4 152.6 32 148.7 32zM173.9 8.1h4.5c1.3 0 3.2-0.1 4.3 0.5 1 0.6 1.6 1.7 1.6 2.8 0 1-0.5 2.2-1.3 2.8 -1.1 0.8-2.6 0.7-3.9 0.7h-5.1V8.1zM183.3 27.2c-1.2 0.8-2.9 0.7-4.2 0.7h-5.2v-7.5h5.5c1.2 0 2.7 0 3.8 0.6 1.1 0.6 1.8 1.8 1.8 3C184.9 25.2 184.3 26.5 183.3 27.2zM197.1 33.6h7.4V2.6h-7.4V33.6zM236.6 11.9c0-3-1.4-6.1-4-7.7 -2.5-1.5-5.3-1.6-8.2-1.6H211v31.1h7.4V21.3h5.4l4.9 12.3h8.3l-5.9-13.7C234.6 18.7 236.6 15.4 236.6 11.9zM227.1 15.4c-1.3 0.8-3 0.6-4.6 0.6h-4.1V8.1h3.9c1.4 0 3.5-0.2 4.8 0.6 1.1 0.6 1.8 1.9 1.8 3.2C228.9 13.2 228.3 14.6 227.1 15.4zM262.7 6c-3.5-3.2-7.4-3.5-12-3.5h-9.2v31.1h10.5c4.5 0 8.4-0.9 11.6-4.3 2.8-3.1 4.1-7.2 4.1-11.3C267.6 13.5 266.1 9.2 262.7 6zM258.2 24.5c-1.7 2.7-3.7 3.3-6.8 3.3h-2.5V8.3h2.6c2.6 0 4.5 0.3 6.3 2.5 1.5 1.9 2.3 4.6 2.3 7C260 20.1 259.4 22.5 258.2 24.5zM27.2 11.9c0-3-1.4-6.1-4-7.7 -2.5-1.5-5.3-1.6-8.2-1.6H1.6v31.1H9V21.3h5.4l4.9 12.3h8.3l-5.9-13.7C25.1 18.7 27.2 15.4 27.2 11.9zM17.7 15.4c-1.3 0.8-3 0.6-4.5 0.6H9V8.1h3.9c1.4 0 3.5-0.2 4.8 0.6 1.1 0.6 1.8 1.9 1.8 3.2C19.5 13.2 18.9 14.6 17.7 15.4zM32.1 33.6h22.7v-6H39.5v-6.9h12.1v-5.8H39.5V8.6h15.3v-6H32.1V33.6zM78.9 17.5L78.9 17.5c3.3-0.9 5.8-3.3 5.8-6.8 0-2.9-1.3-5.2-3.9-6.8 -2.2-1.4-4.8-1.4-7.3-1.4H59.2v31.1h14.3c2.7 0 5.9 0 8.2-1.7 2.2-1.6 3.9-4 3.9-6.7C85.5 21.2 82.8 18.3 78.9 17.5zM66.6 8.1h4.5c1.3 0 3.2-0.1 4.3 0.5 1 0.6 1.6 1.7 1.6 2.8 0 1-0.5 2.2-1.3 2.8 -1.1 0.8-2.6 0.7-3.9 0.7h-5.1V8.1zM76 27.2c-1.2 0.8-2.9 0.7-4.2 0.7h-5.2v-7.5h5.5c1.2 0 2.7 0 3.8 0.6 1.1 0.6 1.8 1.8 1.8 3C77.7 25.2 77.1 26.5 76 27.2zM89.7 33.6h22.7v-6H97.1v-6.9h12.1v-5.8H97.1V8.6h15.3v-6H89.7V33.6zM123.8 2.6h-7.4v31.1h20.2v-6.2h-12.8V2.6z"/></svg>